<?xml version="1.0" encoding="UTF-8"?>
<!DOCTYPE svg PUBLIC "-//W3C//DTD SVG 1.1//EN" "http://www.w3.org/Graphics/SVG/1.1/DTD/svg11.dtd">
<svg width="181mm" height="114mm" viewBox="0 0 18100 11400" version="1.1" baseProfile="tiny" xmlns="http://www.w3.org/2000/svg" stroke-width="28.222" stroke-linejoin="round" xml:space="preserve">
 <path fill="rgb(255,255,255)" stroke="none" d="M 9059,11401 L 0,11401 0,0 18118,0 18118,11401 9059,11401 Z"/>
 <path fill="none" stroke="rgb(179,179,179)" stroke-linejoin="round" d="M 10050,9384 L 2344,9384 2344,459 17756,459 17756,9384 10050,9384 Z"/>
 <path fill="none" stroke="rgb(179,179,179)" stroke-linejoin="round" d="M 17756,9383 L 2344,9383"/>
 <path fill="none" stroke="rgb(179,179,179)" stroke-linejoin="round" d="M 17756,8107 L 2344,8107"/>
 <path fill="none" stroke="rgb(179,179,179)" stroke-linejoin="round" d="M 17756,6832 L 2344,6832"/>
 <path fill="none" stroke="rgb(179,179,179)" stroke-linejoin="round" d="M 17756,5558 L 2344,5558"/>
 <path fill="none" stroke="rgb(179,179,179)" stroke-linejoin="round" d="M 17756,4283 L 2344,4283"/>
 <path fill="none" stroke="rgb(179,179,179)" stroke-linejoin="round" d="M 17756,3008 L 2344,3008"/>
 <path fill="none" stroke="rgb(179,179,179)" stroke-linejoin="round" d="M 17756,1733 L 2344,1733"/>
 <path fill="none" stroke="rgb(179,179,179)" stroke-linejoin="round" d="M 17756,458 L 2344,458"/>
 <path fill="none" stroke="rgb(179,179,179)" stroke-linejoin="round" d="M 2344,9533 L 2344,9383"/>
 <path fill="none" stroke="rgb(179,179,179)" stroke-linejoin="round" d="M 2344,9533 L 2344,9383"/>
 <path fill="none" stroke="rgb(179,179,179)" stroke-linejoin="round" d="M 4545,9533 L 4545,9383"/>
 <path fill="none" stroke="rgb(179,179,179)" stroke-linejoin="round" d="M 4545,9533 L 4545,9383"/>
 <path fill="none" stroke="rgb(179,179,179)" stroke-linejoin="round" d="M 6747,9533 L 6747,9383"/>
 <path fill="none" stroke="rgb(179,179,179)" stroke-linejoin="round" d="M 6747,9533 L 6747,9383"/>
 <path fill="none" stroke="rgb(179,179,179)" stroke-linejoin="round" d="M 8949,9533 L 8949,9383"/>
 <path fill="none" stroke="rgb(179,179,179)" stroke-linejoin="round" d="M 8949,9533 L 8949,9383"/>
 <path fill="none" stroke="rgb(179,179,179)" stroke-linejoin="round" d="M 11150,9533 L 11150,9383"/>
 <path fill="none" stroke="rgb(179,179,179)" stroke-linejoin="round" d="M 11150,9533 L 11150,9383"/>
 <path fill="none" stroke="rgb(179,179,179)" stroke-linejoin="round" d="M 13352,9533 L 13352,9383"/>
 <path fill="none" stroke="rgb(179,179,179)" stroke-linejoin="round" d="M 13352,9533 L 13352,9383"/>
 <path fill="none" stroke="rgb(179,179,179)" stroke-linejoin="round" d="M 15554,9533 L 15554,9383"/>
 <path fill="none" stroke="rgb(179,179,179)" stroke-linejoin="round" d="M 15554,9533 L 15554,9383"/>
 <path fill="none" stroke="rgb(179,179,179)" stroke-linejoin="round" d="M 17756,9533 L 17756,9383"/>
 <path fill="none" stroke="rgb(179,179,179)" stroke-linejoin="round" d="M 17756,9533 L 17756,9383"/>
 <path fill="none" stroke="rgb(179,179,179)" stroke-linejoin="round" d="M 2344,9383 L 17756,9383"/>
 <path fill="none" stroke="rgb(179,179,179)" stroke-linejoin="round" d="M 2194,9383 L 2344,9383"/>
 <path fill="none" stroke="rgb(179,179,179)" stroke-linejoin="round" d="M 2194,9383 L 2344,9383"/>
 <path fill="none" stroke="rgb(179,179,179)" stroke-linejoin="round" d="M 2194,8107 L 2344,8107"/>
 <path fill="none" stroke="rgb(179,179,179)" stroke-linejoin="round" d="M 2194,8107 L 2344,8107"/>
 <path fill="none" stroke="rgb(179,179,179)" stroke-linejoin="round" d="M 2194,6832 L 2344,6832"/>
 <path fill="none" stroke="rgb(179,179,179)" stroke-linejoin="round" d="M 2194,6832 L 2344,6832"/>
 <path fill="none" stroke="rgb(179,179,179)" stroke-linejoin="round" d="M 2194,5558 L 2344,5558"/>
 <path fill="none" stroke="rgb(179,179,179)" stroke-linejoin="round" d="M 2194,5558 L 2344,5558"/>
 <path fill="none" stroke="rgb(179,179,179)" stroke-linejoin="round" d="M 2194,4283 L 2344,4283"/>
 <path fill="none" stroke="rgb(179,179,179)" stroke-linejoin="round" d="M 2194,4283 L 2344,4283"/>
 <path fill="none" stroke="rgb(179,179,179)" stroke-linejoin="round" d="M 2194,3008 L 2344,3008"/>
 <path fill="none" stroke="rgb(179,179,179)" stroke-linejoin="round" d="M 2194,3008 L 2344,3008"/>
 <path fill="none" stroke="rgb(179,179,179)" stroke-linejoin="round" d="M 2194,1733 L 2344,1733"/>
 <path fill="none" stroke="rgb(179,179,179)" stroke-linejoin="round" d="M 2194,1733 L 2344,1733"/>
 <path fill="none" stroke="rgb(179,179,179)" stroke-linejoin="round" d="M 2194,458 L 2344,458"/>
 <path fill="none" stroke="rgb(179,179,179)" stroke-linejoin="round" d="M 2194,458 L 2344,458"/>
 <path fill="none" stroke="rgb(179,179,179)" stroke-linejoin="round" d="M 2344,9383 L 2344,458"/>
 <path fill="rgb(0,69,134)" stroke="none" d="M 15921,9383 L 16655,9383 16655,2166 15921,2166 15921,9383 Z"/>
 <path fill="rgb(0,69,134)" stroke="none" d="M 13719,9383 L 14453,9383 14453,3945 13719,3945 13719,9383 Z"/>
 <path fill="rgb(0,69,134)" stroke="none" d="M 11517,9383 L 12251,9383 12251,3284 11517,3284 11517,9383 Z"/>
 <path fill="rgb(0,69,134)" stroke="none" d="M 9315,9383 L 10049,9383 10049,4317 9315,4317 9315,9383 Z"/>
 <path fill="rgb(0,69,134)" stroke="none" d="M 7114,9383 L 7848,9383 7848,2829 7114,2829 7114,9383 Z"/>
 <path fill="rgb(0,69,134)" stroke="none" d="M 4912,9383 L 5646,9383 5646,3383 4912,3383 4912,9383 Z"/>
 <path fill="rgb(0,69,134)" stroke="none" d="M 2710,9383 L 3444,9383 3444,3058 2710,3058 2710,9383 Z"/>
 <path fill="rgb(255,66,14)" stroke="none" d="M 16655,9383 L 17389,9383 17389,1995 16655,1995 16655,9383 Z"/>
 <path fill="rgb(255,66,14)" stroke="none" d="M 14453,9383 L 15187,9383 15187,3672 14453,3672 14453,9383 Z"/>
 <path fill="rgb(255,66,14)" stroke="none" d="M 12251,9383 L 12985,9383 12985,2860 12251,2860 12251,9383 Z"/>
 <path fill="rgb(255,66,14)" stroke="none" d="M 10049,9383 L 10783,9383 10783,3840 10049,3840 10049,9383 Z"/>
 <path fill="rgb(255,66,14)" stroke="none" d="M 7848,9383 L 8582,9383 8582,2558 7848,2558 7848,9383 Z"/>
 <path fill="rgb(255,66,14)" stroke="none" d="M 5646,9383 L 6380,9383 6380,3028 5646,3028 5646,9383 Z"/>
 <path fill="rgb(255,66,14)" stroke="none" d="M 3444,9383 L 4178,9383 4178,2829 3444,2829 3444,9383 Z"/>
 <text class="TextShape"><tspan class="TextParagraph" font-family="IPA Pゴシック" font-size="423px" font-weight="400"><tspan class="TextPosition" x="3011" y="10011"/><tspan class="TextPosition" x="3011" y="10011"><tspan fill="rgb(0,0,0)" stroke="none">立地</tspan></tspan></tspan></text>
 <text class="TextShape"><tspan class="TextParagraph" font-family="IPA Pゴシック" font-size="423px" font-weight="400"><tspan class="TextPosition" x="5213" y="10011"/><tspan class="TextPosition" x="5213" y="10011"><tspan fill="rgb(0,0,0)" stroke="none">部屋</tspan></tspan></tspan></text>
 <text class="TextShape"><tspan class="TextParagraph" font-family="IPA Pゴシック" font-size="423px" font-weight="400"><tspan class="TextPosition" x="7415" y="10011"/><tspan class="TextPosition" x="7415" y="10011"><tspan fill="rgb(0,0,0)" stroke="none">食事</tspan></tspan></tspan></text>
 <text class="TextShape"><tspan class="TextParagraph" font-family="IPA Pゴシック" font-size="423px" font-weight="400"><tspan class="TextPosition" x="9617" y="10011"/><tspan class="TextPosition" x="9617" y="10011"><tspan fill="rgb(0,0,0)" stroke="none">風呂</tspan></tspan></tspan></text>
 <text class="TextShape"><tspan class="TextParagraph" font-family="IPA Pゴシック" font-size="423px" font-weight="400"><tspan class="TextPosition" x="11468" y="10011"/><tspan class="TextPosition" x="11468" y="10011"><tspan fill="rgb(0,0,0)" stroke="none">サービス</tspan></tspan></tspan></text>
 <text class="TextShape"><tspan class="TextParagraph" font-family="IPA Pゴシック" font-size="423px" font-weight="400"><tspan class="TextPosition" x="14021" y="10011"/><tspan class="TextPosition" x="14021" y="10011"><tspan fill="rgb(0,0,0)" stroke="none">設備</tspan></tspan></tspan></text>
 <text class="TextShape"><tspan class="TextParagraph" font-family="IPA Pゴシック" font-size="423px" font-weight="400"><tspan class="TextPosition" x="16223" y="10011"/><tspan class="TextPosition" x="16223" y="10011"><tspan fill="rgb(0,0,0)" stroke="none">総合</tspan></tspan></tspan></text>
 <text class="TextShape"><tspan class="TextParagraph" font-family="Liberation Sans" font-size="423px" font-weight="400"><tspan class="TextPosition" x="1851" y="9533"/><tspan class="TextPosition" x="1851" y="9533"><tspan fill="rgb(0,0,0)" stroke="none">0</tspan></tspan></tspan></text>
 <text class="TextShape"><tspan class="TextParagraph" font-family="Liberation Sans" font-size="423px" font-weight="400"><tspan class="TextPosition" x="1500" y="8257"/><tspan class="TextPosition" x="1500" y="8257"><tspan fill="rgb(0,0,0)" stroke="none">0.1</tspan></tspan></tspan></text>
 <text class="TextShape"><tspan class="TextParagraph" font-family="Liberation Sans" font-size="423px" font-weight="400"><tspan class="TextPosition" x="1500" y="6982"/><tspan class="TextPosition" x="1500" y="6982"><tspan fill="rgb(0,0,0)" stroke="none">0.2</tspan></tspan></tspan></text>
 <text class="TextShape"><tspan class="TextParagraph" font-family="Liberation Sans" font-size="423px" font-weight="400"><tspan class="TextPosition" x="1500" y="5707"/><tspan class="TextPosition" x="1500" y="5707"><tspan fill="rgb(0,0,0)" stroke="none">0.3</tspan></tspan></tspan></text>
 <text class="TextShape"><tspan class="TextParagraph" font-family="Liberation Sans" font-size="423px" font-weight="400"><tspan class="TextPosition" x="1500" y="4432"/><tspan class="TextPosition" x="1500" y="4432"><tspan fill="rgb(0,0,0)" stroke="none">0.4</tspan></tspan></tspan></text>
 <text class="TextShape"><tspan class="TextParagraph" font-family="Liberation Sans" font-size="423px" font-weight="400"><tspan class="TextPosition" x="1500" y="3157"/><tspan class="TextPosition" x="1500" y="3157"><tspan fill="rgb(0,0,0)" stroke="none">0.5</tspan></tspan></tspan></text>
 <text class="TextShape"><tspan class="TextParagraph" font-family="Liberation Sans" font-size="423px" font-weight="400"><tspan class="TextPosition" x="1500" y="1882"/><tspan class="TextPosition" x="1500" y="1882"><tspan fill="rgb(0,0,0)" stroke="none">0.6</tspan></tspan></tspan></text>
 <text class="TextShape"><tspan class="TextParagraph" font-family="Liberation Sans" font-size="423px" font-weight="400"><tspan class="TextPosition" x="1500" y="607"/><tspan class="TextPosition" x="1500" y="607"><tspan fill="rgb(0,0,0)" stroke="none">0.7</tspan></tspan></tspan></text>
 <path fill="rgb(255,255,255)" stroke="none" d="M 16008,1807 L 14554,1807 14554,614 17462,614 17462,1807 16008,1807 Z"/>
 <path fill="none" stroke="rgb(0,0,0)" stroke-width="10" stroke-linejoin="round" d="M 16008,1807 L 14554,1807 14554,614 17462,614 17462,1807 16008,1807 Z"/>
 <path fill="rgb(0,69,134)" stroke="none" d="M 14820,1071 L 14693,1071 14693,817 14947,817 14947,1071 14820,1071 Z"/>
 <path fill="rgb(255,66,14)" stroke="none" d="M 14820,1631 L 14693,1631 14693,1377 14947,1377 14947,1631 14820,1631 Z"/>
 <text class="TextShape"><tspan class="TextParagraph" font-family="IPA Pゴシック" font-size="423px" font-weight="400"><tspan class="TextPosition" x="15047" y="1092"/><tspan class="TextPosition" x="15047" y="1092"><tspan fill="rgb(0,0,0)" stroke="none">従来手法</tspan></tspan><tspan class="TextPosition" x="16862" y="1092"><tspan font-family="Liberation Sans" fill="rgb(0,0,0)" stroke="none">[1]</tspan></tspan></tspan></text>
 <text class="TextShape"><tspan class="TextParagraph" font-family="IPA Pゴシック" font-size="423px" font-weight="400"><tspan class="TextPosition" x="15047" y="1652"/><tspan class="TextPosition" x="15047" y="1652"><tspan fill="rgb(0,0,0)" stroke="none">提案手法</tspan></tspan></tspan></text>
 <text class="TextShape"><tspan class="TextParagraph" font-family="IPA Pゴシック" font-size="423px" font-weight="400"><tspan class="TextPosition" x="8871" y="10800"/><tspan class="TextPosition" x="8871" y="10800"><tspan fill="rgb(0,0,0)" stroke="none">カテゴリ</tspan></tspan></tspan></text>
 <text class="TextShape" transform="translate(956,5795) rotate(-90) translate(-956,-5795)"><tspan class="TextParagraph" font-family="IPA Pゴシック" font-size="423px" font-weight="400"><tspan class="TextPosition" x="956" y="5795"/><tspan class="TextPosition" x="956" y="5795"><tspan fill="rgb(0,0,0)" stroke="none">正答率</tspan></tspan></tspan></text>
</svg>