<?xml version="1.0" encoding="UTF-8"?>
<!DOCTYPE svg PUBLIC "-//W3C//DTD SVG 1.1//EN" "http://www.w3.org/Graphics/SVG/1.1/DTD/svg11.dtd">
<svg width="181mm" height="114mm" viewBox="0 0 18100 11400" version="1.1" baseProfile="tiny" xmlns="http://www.w3.org/2000/svg" stroke-width="28.222" stroke-linejoin="round" xml:space="preserve">
 <path fill="rgb(255,255,255)" stroke="none" d="M 9059,11401 L 0,11401 0,0 18118,0 18118,11401 9059,11401 Z"/>
 <path fill="none" stroke="rgb(179,179,179)" stroke-linejoin="round" d="M 10063,9384 L 2371,9384 2371,458 17756,458 17756,9384 10063,9384 Z"/>
 <path fill="none" stroke="rgb(179,179,179)" stroke-linejoin="round" d="M 17756,9383 L 2371,9383"/>
 <path fill="none" stroke="rgb(179,179,179)" stroke-linejoin="round" d="M 17756,8391 L 2371,8391"/>
 <path fill="none" stroke="rgb(179,179,179)" stroke-linejoin="round" d="M 17756,7399 L 2371,7399"/>
 <path fill="none" stroke="rgb(179,179,179)" stroke-linejoin="round" d="M 17756,6407 L 2371,6407"/>
 <path fill="none" stroke="rgb(179,179,179)" stroke-linejoin="round" d="M 17756,5416 L 2371,5416"/>
 <path fill="none" stroke="rgb(179,179,179)" stroke-linejoin="round" d="M 17756,4424 L 2371,4424"/>
 <path fill="none" stroke="rgb(179,179,179)" stroke-linejoin="round" d="M 17756,3432 L 2371,3432"/>
 <path fill="none" stroke="rgb(179,179,179)" stroke-linejoin="round" d="M 17756,2440 L 2371,2440"/>
 <path fill="none" stroke="rgb(179,179,179)" stroke-linejoin="round" d="M 17756,1448 L 2371,1448"/>
 <path fill="none" stroke="rgb(179,179,179)" stroke-linejoin="round" d="M 17756,456 L 2371,456"/>
 <path fill="none" stroke="rgb(179,179,179)" stroke-linejoin="round" d="M 2371,9533 L 2371,9383"/>
 <path fill="none" stroke="rgb(179,179,179)" stroke-linejoin="round" d="M 2371,9533 L 2371,9383"/>
 <path fill="none" stroke="rgb(179,179,179)" stroke-linejoin="round" d="M 4569,9533 L 4569,9383"/>
 <path fill="none" stroke="rgb(179,179,179)" stroke-linejoin="round" d="M 4569,9533 L 4569,9383"/>
 <path fill="none" stroke="rgb(179,179,179)" stroke-linejoin="round" d="M 6767,9533 L 6767,9383"/>
 <path fill="none" stroke="rgb(179,179,179)" stroke-linejoin="round" d="M 6767,9533 L 6767,9383"/>
 <path fill="none" stroke="rgb(179,179,179)" stroke-linejoin="round" d="M 8965,9533 L 8965,9383"/>
 <path fill="none" stroke="rgb(179,179,179)" stroke-linejoin="round" d="M 8965,9533 L 8965,9383"/>
 <path fill="none" stroke="rgb(179,179,179)" stroke-linejoin="round" d="M 11162,9533 L 11162,9383"/>
 <path fill="none" stroke="rgb(179,179,179)" stroke-linejoin="round" d="M 11162,9533 L 11162,9383"/>
 <path fill="none" stroke="rgb(179,179,179)" stroke-linejoin="round" d="M 13359,9533 L 13359,9383"/>
 <path fill="none" stroke="rgb(179,179,179)" stroke-linejoin="round" d="M 13359,9533 L 13359,9383"/>
 <path fill="none" stroke="rgb(179,179,179)" stroke-linejoin="round" d="M 15558,9533 L 15558,9383"/>
 <path fill="none" stroke="rgb(179,179,179)" stroke-linejoin="round" d="M 15558,9533 L 15558,9383"/>
 <path fill="none" stroke="rgb(179,179,179)" stroke-linejoin="round" d="M 17756,9533 L 17756,9383"/>
 <path fill="none" stroke="rgb(179,179,179)" stroke-linejoin="round" d="M 17756,9533 L 17756,9383"/>
 <path fill="none" stroke="rgb(179,179,179)" stroke-linejoin="round" d="M 2371,9383 L 17756,9383"/>
 <path fill="none" stroke="rgb(179,179,179)" stroke-linejoin="round" d="M 2221,9383 L 2371,9383"/>
 <path fill="none" stroke="rgb(179,179,179)" stroke-linejoin="round" d="M 2221,9383 L 2371,9383"/>
 <path fill="none" stroke="rgb(179,179,179)" stroke-linejoin="round" d="M 2221,8391 L 2371,8391"/>
 <path fill="none" stroke="rgb(179,179,179)" stroke-linejoin="round" d="M 2221,8391 L 2371,8391"/>
 <path fill="none" stroke="rgb(179,179,179)" stroke-linejoin="round" d="M 2221,7399 L 2371,7399"/>
 <path fill="none" stroke="rgb(179,179,179)" stroke-linejoin="round" d="M 2221,7399 L 2371,7399"/>
 <path fill="none" stroke="rgb(179,179,179)" stroke-linejoin="round" d="M 2221,6407 L 2371,6407"/>
 <path fill="none" stroke="rgb(179,179,179)" stroke-linejoin="round" d="M 2221,6407 L 2371,6407"/>
 <path fill="none" stroke="rgb(179,179,179)" stroke-linejoin="round" d="M 2221,5416 L 2371,5416"/>
 <path fill="none" stroke="rgb(179,179,179)" stroke-linejoin="round" d="M 2221,5416 L 2371,5416"/>
 <path fill="none" stroke="rgb(179,179,179)" stroke-linejoin="round" d="M 2221,4424 L 2371,4424"/>
 <path fill="none" stroke="rgb(179,179,179)" stroke-linejoin="round" d="M 2221,4424 L 2371,4424"/>
 <path fill="none" stroke="rgb(179,179,179)" stroke-linejoin="round" d="M 2221,3432 L 2371,3432"/>
 <path fill="none" stroke="rgb(179,179,179)" stroke-linejoin="round" d="M 2221,3432 L 2371,3432"/>
 <path fill="none" stroke="rgb(179,179,179)" stroke-linejoin="round" d="M 2221,2440 L 2371,2440"/>
 <path fill="none" stroke="rgb(179,179,179)" stroke-linejoin="round" d="M 2221,2440 L 2371,2440"/>
 <path fill="none" stroke="rgb(179,179,179)" stroke-linejoin="round" d="M 2221,1448 L 2371,1448"/>
 <path fill="none" stroke="rgb(179,179,179)" stroke-linejoin="round" d="M 2221,1448 L 2371,1448"/>
 <path fill="none" stroke="rgb(179,179,179)" stroke-linejoin="round" d="M 2221,456 L 2371,456"/>
 <path fill="none" stroke="rgb(179,179,179)" stroke-linejoin="round" d="M 2221,456 L 2371,456"/>
 <path fill="none" stroke="rgb(179,179,179)" stroke-linejoin="round" d="M 2371,9383 L 2371,456"/>
 <path fill="rgb(0,69,134)" stroke="none" d="M 15924,9383 L 16657,9383 16657,5366 15924,5366 15924,9383 Z"/>
 <path fill="rgb(0,69,134)" stroke="none" d="M 13726,9383 L 14459,9383 14459,4672 13726,4672 13726,9383 Z"/>
 <path fill="rgb(0,69,134)" stroke="none" d="M 11528,9383 L 12261,9383 12261,4722 11528,4722 11528,9383 Z"/>
 <path fill="rgb(0,69,134)" stroke="none" d="M 9330,9383 L 10063,9383 10063,3085 9330,3085 9330,9383 Z"/>
 <path fill="rgb(0,69,134)" stroke="none" d="M 7133,9383 L 7865,9383 7865,1796 7133,1796 7133,9383 Z"/>
 <path fill="rgb(0,69,134)" stroke="none" d="M 4935,9383 L 5667,9383 5667,4573 4935,4573 4935,9383 Z"/>
 <path fill="rgb(0,69,134)" stroke="none" d="M 2737,9383 L 3470,9383 3470,4573 2737,4573 2737,9383 Z"/>
 <path fill="rgb(255,66,14)" stroke="none" d="M 16657,9383 L 17389,9383 17389,5762 16657,5762 16657,9383 Z"/>
 <path fill="rgb(255,66,14)" stroke="none" d="M 14459,9383 L 15191,9383 15191,4920 14459,4920 14459,9383 Z"/>
 <path fill="rgb(255,66,14)" stroke="none" d="M 12261,9383 L 12993,9383 12993,5118 12261,5118 12261,9383 Z"/>
 <path fill="rgb(255,66,14)" stroke="none" d="M 10063,9383 L 10795,9383 10795,4275 10063,4275 10063,9383 Z"/>
 <path fill="rgb(255,66,14)" stroke="none" d="M 7866,9383 L 8598,9383 8598,4771 7866,4771 7866,9383 Z"/>
 <path fill="rgb(255,66,14)" stroke="none" d="M 5668,9383 L 6400,9383 6400,5019 5668,5019 5668,9383 Z"/>
 <path fill="rgb(255,66,14)" stroke="none" d="M 3470,9383 L 4202,9383 4202,5019 3470,5019 3470,9383 Z"/>
 <text class="TextShape"><tspan class="TextParagraph" font-family="IPA Pゴシック" font-size="423px" font-weight="400"><tspan class="TextPosition" x="3037" y="10011"/><tspan class="TextPosition" x="3037" y="10011"><tspan fill="rgb(0,0,0)" stroke="none">立地</tspan></tspan></tspan></text>
 <text class="TextShape"><tspan class="TextParagraph" font-family="IPA Pゴシック" font-size="423px" font-weight="400"><tspan class="TextPosition" x="5235" y="10011"/><tspan class="TextPosition" x="5235" y="10011"><tspan fill="rgb(0,0,0)" stroke="none">部屋</tspan></tspan></tspan></text>
 <text class="TextShape"><tspan class="TextParagraph" font-family="IPA Pゴシック" font-size="423px" font-weight="400"><tspan class="TextPosition" x="7432" y="10011"/><tspan class="TextPosition" x="7432" y="10011"><tspan fill="rgb(0,0,0)" stroke="none">食事</tspan></tspan></tspan></text>
 <text class="TextShape"><tspan class="TextParagraph" font-family="IPA Pゴシック" font-size="423px" font-weight="400"><tspan class="TextPosition" x="9631" y="10011"/><tspan class="TextPosition" x="9631" y="10011"><tspan fill="rgb(0,0,0)" stroke="none">風呂</tspan></tspan></tspan></text>
 <text class="TextShape"><tspan class="TextParagraph" font-family="IPA Pゴシック" font-size="423px" font-weight="400"><tspan class="TextPosition" x="11477" y="10011"/><tspan class="TextPosition" x="11477" y="10011"><tspan fill="rgb(0,0,0)" stroke="none">サービス</tspan></tspan></tspan></text>
 <text class="TextShape"><tspan class="TextParagraph" font-family="IPA Pゴシック" font-size="423px" font-weight="400"><tspan class="TextPosition" x="14027" y="10011"/><tspan class="TextPosition" x="14027" y="10011"><tspan fill="rgb(0,0,0)" stroke="none">設備</tspan></tspan></tspan></text>
 <text class="TextShape"><tspan class="TextParagraph" font-family="IPA Pゴシック" font-size="423px" font-weight="400"><tspan class="TextPosition" x="16225" y="10011"/><tspan class="TextPosition" x="16225" y="10011"><tspan fill="rgb(0,0,0)" stroke="none">総合</tspan></tspan></tspan></text>
 <text class="TextShape"><tspan class="TextParagraph" font-family="Liberation Sans" font-size="423px" font-weight="400"><tspan class="TextPosition" x="1878" y="9533"/><tspan class="TextPosition" x="1878" y="9533"><tspan fill="rgb(0,0,0)" stroke="none">0</tspan></tspan></tspan></text>
 <text class="TextShape"><tspan class="TextParagraph" font-family="Liberation Sans" font-size="423px" font-weight="400"><tspan class="TextPosition" x="1527" y="8541"/><tspan class="TextPosition" x="1527" y="8541"><tspan fill="rgb(0,0,0)" stroke="none">0.2</tspan></tspan></tspan></text>
 <text class="TextShape"><tspan class="TextParagraph" font-family="Liberation Sans" font-size="423px" font-weight="400"><tspan class="TextPosition" x="1527" y="7549"/><tspan class="TextPosition" x="1527" y="7549"><tspan fill="rgb(0,0,0)" stroke="none">0.4</tspan></tspan></tspan></text>
 <text class="TextShape"><tspan class="TextParagraph" font-family="Liberation Sans" font-size="423px" font-weight="400"><tspan class="TextPosition" x="1527" y="6557"/><tspan class="TextPosition" x="1527" y="6557"><tspan fill="rgb(0,0,0)" stroke="none">0.6</tspan></tspan></tspan></text>
 <text class="TextShape"><tspan class="TextParagraph" font-family="Liberation Sans" font-size="423px" font-weight="400"><tspan class="TextPosition" x="1527" y="5565"/><tspan class="TextPosition" x="1527" y="5565"><tspan fill="rgb(0,0,0)" stroke="none">0.8</tspan></tspan></tspan></text>
 <text class="TextShape"><tspan class="TextParagraph" font-family="Liberation Sans" font-size="423px" font-weight="400"><tspan class="TextPosition" x="1878" y="4573"/><tspan class="TextPosition" x="1878" y="4573"><tspan fill="rgb(0,0,0)" stroke="none">1</tspan></tspan></tspan></text>
 <text class="TextShape"><tspan class="TextParagraph" font-family="Liberation Sans" font-size="423px" font-weight="400"><tspan class="TextPosition" x="1527" y="3581"/><tspan class="TextPosition" x="1527" y="3581"><tspan fill="rgb(0,0,0)" stroke="none">1.2</tspan></tspan></tspan></text>
 <text class="TextShape"><tspan class="TextParagraph" font-family="Liberation Sans" font-size="423px" font-weight="400"><tspan class="TextPosition" x="1527" y="2589"/><tspan class="TextPosition" x="1527" y="2589"><tspan fill="rgb(0,0,0)" stroke="none">1.4</tspan></tspan></tspan></text>
 <text class="TextShape"><tspan class="TextParagraph" font-family="Liberation Sans" font-size="423px" font-weight="400"><tspan class="TextPosition" x="1527" y="1597"/><tspan class="TextPosition" x="1527" y="1597"><tspan fill="rgb(0,0,0)" stroke="none">1.6</tspan></tspan></tspan></text>
 <text class="TextShape"><tspan class="TextParagraph" font-family="Liberation Sans" font-size="423px" font-weight="400"><tspan class="TextPosition" x="1527" y="605"/><tspan class="TextPosition" x="1527" y="605"><tspan fill="rgb(0,0,0)" stroke="none">1.8</tspan></tspan></tspan></text>
 <path fill="rgb(255,255,255)" stroke="none" d="M 15746,1989 L 14292,1989 14292,796 17200,796 17200,1989 15746,1989 Z"/>
 <path fill="none" stroke="rgb(0,0,0)" stroke-width="10" stroke-linejoin="round" d="M 15746,1989 L 14292,1989 14292,796 17200,796 17200,1989 15746,1989 Z"/>
 <path fill="rgb(0,69,134)" stroke="none" d="M 14558,1253 L 14431,1253 14431,999 14685,999 14685,1253 14558,1253 Z"/>
 <path fill="rgb(255,66,14)" stroke="none" d="M 14558,1813 L 14431,1813 14431,1559 14685,1559 14685,1813 14558,1813 Z"/>
 <text class="TextShape"><tspan class="TextParagraph" font-family="IPA Pゴシック" font-size="423px" font-weight="400"><tspan class="TextPosition" x="14785" y="1274"/><tspan class="TextPosition" x="14785" y="1274"><tspan fill="rgb(0,0,0)" stroke="none">従来手法</tspan></tspan><tspan class="TextPosition" x="16600" y="1274"><tspan font-family="Liberation Sans" fill="rgb(0,0,0)" stroke="none">[1]</tspan></tspan></tspan></text>
 <text class="TextShape"><tspan class="TextParagraph" font-family="IPA Pゴシック" font-size="423px" font-weight="400"><tspan class="TextPosition" x="14785" y="1834"/><tspan class="TextPosition" x="14785" y="1834"><tspan fill="rgb(0,0,0)" stroke="none">提案手法</tspan></tspan></tspan></text>
 <text class="TextShape"><tspan class="TextParagraph" font-family="IPA Pゴシック" font-size="423px" font-weight="400"><tspan class="TextPosition" x="8884" y="10800"/><tspan class="TextPosition" x="8884" y="10800"><tspan fill="rgb(0,0,0)" stroke="none">カテゴリ</tspan></tspan></tspan></text>
 <text class="TextShape" transform="translate(956,5768) rotate(-90) translate(-956,-5768)"><tspan class="TextParagraph" font-family="Liberation Sans" font-size="423px" font-weight="400"><tspan class="TextPosition" x="956" y="5768"/><tspan class="TextPosition" x="956" y="5768"><tspan fill="rgb(0,0,0)" stroke="none">RMSE</tspan></tspan></tspan></text>
</svg>