<?xml version="1.0" encoding="UTF-8"?>
<!DOCTYPE svg PUBLIC "-//W3C//DTD SVG 1.1//EN" "http://www.w3.org/Graphics/SVG/1.1/DTD/svg11.dtd">
<svg width="143mm" height="90mm" viewBox="0 0 14300 9000" version="1.1" baseProfile="tiny" xmlns="http://www.w3.org/2000/svg" stroke-width="28.222" stroke-linejoin="round" xml:space="preserve">
 <path fill="rgb(255,255,255)" stroke="none" d="M 7141,8999 L 0,8999 0,0 14282,0 14282,8999 7141,8999 Z"/>
 <path fill="none" stroke="rgb(179,179,179)" stroke-linejoin="round" d="M 8375,7003 L 2754,7003 2754,410 13997,410 13997,7003 8375,7003 Z"/>
 <path fill="none" stroke="rgb(179,179,179)" stroke-linejoin="round" d="M 13997,7002 L 2754,7002"/>
 <path fill="none" stroke="rgb(179,179,179)" stroke-linejoin="round" d="M 13997,6177 L 2754,6177"/>
 <path fill="none" stroke="rgb(179,179,179)" stroke-linejoin="round" d="M 13997,5353 L 2754,5353"/>
 <path fill="none" stroke="rgb(179,179,179)" stroke-linejoin="round" d="M 13997,4529 L 2754,4529"/>
 <path fill="none" stroke="rgb(179,179,179)" stroke-linejoin="round" d="M 13997,3706 L 2754,3706"/>
 <path fill="none" stroke="rgb(179,179,179)" stroke-linejoin="round" d="M 13997,2881 L 2754,2881"/>
 <path fill="none" stroke="rgb(179,179,179)" stroke-linejoin="round" d="M 13997,2057 L 2754,2057"/>
 <path fill="none" stroke="rgb(179,179,179)" stroke-linejoin="round" d="M 13997,1233 L 2754,1233"/>
 <path fill="none" stroke="rgb(179,179,179)" stroke-linejoin="round" d="M 13997,409 L 2754,409"/>
 <path fill="none" stroke="rgb(179,179,179)" stroke-linejoin="round" d="M 2754,7152 L 2754,7002"/>
 <path fill="none" stroke="rgb(179,179,179)" stroke-linejoin="round" d="M 2754,7152 L 2754,7002"/>
 <path fill="none" stroke="rgb(179,179,179)" stroke-linejoin="round" d="M 5002,7152 L 5002,7002"/>
 <path fill="none" stroke="rgb(179,179,179)" stroke-linejoin="round" d="M 5002,7152 L 5002,7002"/>
 <path fill="none" stroke="rgb(179,179,179)" stroke-linejoin="round" d="M 7250,7152 L 7250,7002"/>
 <path fill="none" stroke="rgb(179,179,179)" stroke-linejoin="round" d="M 7250,7152 L 7250,7002"/>
 <path fill="none" stroke="rgb(179,179,179)" stroke-linejoin="round" d="M 9499,7152 L 9499,7002"/>
 <path fill="none" stroke="rgb(179,179,179)" stroke-linejoin="round" d="M 9499,7152 L 9499,7002"/>
 <path fill="none" stroke="rgb(179,179,179)" stroke-linejoin="round" d="M 11748,7152 L 11748,7002"/>
 <path fill="none" stroke="rgb(179,179,179)" stroke-linejoin="round" d="M 11748,7152 L 11748,7002"/>
 <path fill="none" stroke="rgb(179,179,179)" stroke-linejoin="round" d="M 13997,7152 L 13997,7002"/>
 <path fill="none" stroke="rgb(179,179,179)" stroke-linejoin="round" d="M 13997,7152 L 13997,7002"/>
 <path fill="none" stroke="rgb(179,179,179)" stroke-linejoin="round" d="M 2754,7002 L 13997,7002"/>
 <path fill="none" stroke="rgb(179,179,179)" stroke-linejoin="round" d="M 2604,7002 L 2754,7002"/>
 <path fill="none" stroke="rgb(179,179,179)" stroke-linejoin="round" d="M 2604,7002 L 2754,7002"/>
 <path fill="none" stroke="rgb(179,179,179)" stroke-linejoin="round" d="M 2604,6177 L 2754,6177"/>
 <path fill="none" stroke="rgb(179,179,179)" stroke-linejoin="round" d="M 2604,6177 L 2754,6177"/>
 <path fill="none" stroke="rgb(179,179,179)" stroke-linejoin="round" d="M 2604,5353 L 2754,5353"/>
 <path fill="none" stroke="rgb(179,179,179)" stroke-linejoin="round" d="M 2604,5353 L 2754,5353"/>
 <path fill="none" stroke="rgb(179,179,179)" stroke-linejoin="round" d="M 2604,4529 L 2754,4529"/>
 <path fill="none" stroke="rgb(179,179,179)" stroke-linejoin="round" d="M 2604,4529 L 2754,4529"/>
 <path fill="none" stroke="rgb(179,179,179)" stroke-linejoin="round" d="M 2604,3705 L 2754,3705"/>
 <path fill="none" stroke="rgb(179,179,179)" stroke-linejoin="round" d="M 2604,3705 L 2754,3705"/>
 <path fill="none" stroke="rgb(179,179,179)" stroke-linejoin="round" d="M 2604,2881 L 2754,2881"/>
 <path fill="none" stroke="rgb(179,179,179)" stroke-linejoin="round" d="M 2604,2881 L 2754,2881"/>
 <path fill="none" stroke="rgb(179,179,179)" stroke-linejoin="round" d="M 2604,2057 L 2754,2057"/>
 <path fill="none" stroke="rgb(179,179,179)" stroke-linejoin="round" d="M 2604,2057 L 2754,2057"/>
 <path fill="none" stroke="rgb(179,179,179)" stroke-linejoin="round" d="M 2604,1233 L 2754,1233"/>
 <path fill="none" stroke="rgb(179,179,179)" stroke-linejoin="round" d="M 2604,1233 L 2754,1233"/>
 <path fill="none" stroke="rgb(179,179,179)" stroke-linejoin="round" d="M 2604,409 L 2754,409"/>
 <path fill="none" stroke="rgb(179,179,179)" stroke-linejoin="round" d="M 2604,409 L 2754,409"/>
 <path fill="none" stroke="rgb(179,179,179)" stroke-linejoin="round" d="M 2754,7002 L 2754,409"/>
 <path fill="rgb(0,69,134)" stroke="none" d="M 12310,7002 L 13434,7002 13434,1562 12310,1562 12310,7002 Z"/>
 <path fill="rgb(0,69,134)" stroke="none" d="M 10061,7002 L 11186,7002 11186,4250 10061,4250 10061,7002 Z"/>
 <path fill="rgb(0,69,134)" stroke="none" d="M 7812,7002 L 8937,7002 8937,4727 7812,4727 7812,7002 Z"/>
 <path fill="rgb(0,69,134)" stroke="none" d="M 5565,7002 L 6689,7002 6689,2387 5565,2387 5565,7002 Z"/>
 <path fill="rgb(0,69,134)" stroke="none" d="M 3316,7002 L 4440,7002 4440,4825 3316,4825 3316,7002 Z"/>
 <text class="TextShape"><tspan class="TextParagraph" font-family="IPA Pゴシック" font-size="423px" font-weight="400"><tspan class="TextPosition" x="2741" y="7630"/><tspan class="TextPosition" x="2741" y="7630"><tspan fill="rgb(0,0,0)" stroke="none">従来手法</tspan></tspan><tspan class="TextPosition" x="4556" y="7630"><tspan font-family="Liberation Sans" fill="rgb(0,0,0)" stroke="none">[1]</tspan></tspan></tspan></text>
 <text class="TextShape"><tspan class="TextParagraph" font-family="Liberation Sans" font-size="423px" font-weight="400"><tspan class="TextPosition" x="5816" y="7630"/><tspan class="TextPosition" x="5816" y="7630"><tspan fill="rgb(0,0,0)" stroke="none">DV</tspan></tspan></tspan></text>
 <text class="TextShape"><tspan class="TextParagraph" font-family="Liberation Sans" font-size="423px" font-weight="400"><tspan class="TextPosition" x="7930" y="7630"/><tspan class="TextPosition" x="7930" y="7630"><tspan fill="rgb(0,0,0)" stroke="none">ASV</tspan></tspan></tspan></text>
 <text class="TextShape"><tspan class="TextParagraph" font-family="Liberation Sans" font-size="423px" font-weight="400"><tspan class="TextPosition" x="9246" y="7630"/><tspan class="TextPosition" x="9246" y="7630"><tspan fill="rgb(0,0,0)" stroke="none">Weighted ASV</tspan></tspan></tspan></text>
 <text class="TextShape"><tspan class="TextParagraph" font-family="IPA Pゴシック" font-size="423px" font-weight="400"><tspan class="TextPosition" x="12008" y="7630"/><tspan class="TextPosition" x="12008" y="7630"><tspan fill="rgb(0,0,0)" stroke="none">提案手法</tspan></tspan></tspan></text>
 <text class="TextShape"><tspan class="TextParagraph" font-family="Liberation Sans" font-size="423px" font-weight="400"><tspan class="TextPosition" x="1666" y="7152"/><tspan class="TextPosition" x="1666" y="7152"><tspan fill="rgb(0,0,0)" stroke="none">0.47</tspan></tspan></tspan></text>
 <text class="TextShape"><tspan class="TextParagraph" font-family="Liberation Sans" font-size="423px" font-weight="400"><tspan class="TextPosition" x="1423" y="6327"/><tspan class="TextPosition" x="1423" y="6327"><tspan fill="rgb(0,0,0)" stroke="none">0.475</tspan></tspan></tspan></text>
 <text class="TextShape"><tspan class="TextParagraph" font-family="Liberation Sans" font-size="423px" font-weight="400"><tspan class="TextPosition" x="1666" y="5503"/><tspan class="TextPosition" x="1666" y="5503"><tspan fill="rgb(0,0,0)" stroke="none">0.48</tspan></tspan></tspan></text>
 <text class="TextShape"><tspan class="TextParagraph" font-family="Liberation Sans" font-size="423px" font-weight="400"><tspan class="TextPosition" x="1423" y="4679"/><tspan class="TextPosition" x="1423" y="4679"><tspan fill="rgb(0,0,0)" stroke="none">0.485</tspan></tspan></tspan></text>
 <text class="TextShape"><tspan class="TextParagraph" font-family="Liberation Sans" font-size="423px" font-weight="400"><tspan class="TextPosition" x="1666" y="3854"/><tspan class="TextPosition" x="1666" y="3854"><tspan fill="rgb(0,0,0)" stroke="none">0.49</tspan></tspan></tspan></text>
 <text class="TextShape"><tspan class="TextParagraph" font-family="Liberation Sans" font-size="423px" font-weight="400"><tspan class="TextPosition" x="1423" y="3030"/><tspan class="TextPosition" x="1423" y="3030"><tspan fill="rgb(0,0,0)" stroke="none">0.495</tspan></tspan></tspan></text>
 <text class="TextShape"><tspan class="TextParagraph" font-family="Liberation Sans" font-size="423px" font-weight="400"><tspan class="TextPosition" x="1910" y="2206"/><tspan class="TextPosition" x="1910" y="2206"><tspan fill="rgb(0,0,0)" stroke="none">0.5</tspan></tspan></tspan></text>
 <text class="TextShape"><tspan class="TextParagraph" font-family="Liberation Sans" font-size="423px" font-weight="400"><tspan class="TextPosition" x="1423" y="1382"/><tspan class="TextPosition" x="1423" y="1382"><tspan fill="rgb(0,0,0)" stroke="none">0.505</tspan></tspan></tspan></text>
 <text class="TextShape"><tspan class="TextParagraph" font-family="Liberation Sans" font-size="423px" font-weight="400"><tspan class="TextPosition" x="1666" y="558"/><tspan class="TextPosition" x="1666" y="558"><tspan fill="rgb(0,0,0)" stroke="none">0.51</tspan></tspan></tspan></text>
 <path fill="rgb(255,255,255)" stroke="none" d="M 12469,1325 L 11335,1325 11335,572 13602,572 13602,1325 12469,1325 Z"/>
 <path fill="none" stroke="rgb(0,0,0)" stroke-width="10" stroke-linejoin="round" d="M 12469,1325 L 11335,1325 11335,572 13602,572 13602,1325 12469,1325 Z"/>
 <path fill="rgb(0,69,134)" stroke="none" d="M 11769,1075 L 11642,1075 11642,821 11896,821 11896,1075 11769,1075 Z"/>
 <text class="TextShape"><tspan class="TextParagraph" font-family="IPA Pゴシック" font-size="423px" font-weight="400"><tspan class="TextPosition" x="11996" y="1110"/><tspan class="TextPosition" x="11996" y="1110"><tspan fill="rgb(0,0,0)" stroke="none">正答率</tspan></tspan></tspan></text>
 <text class="TextShape"><tspan class="TextParagraph" font-family="IPA Pゴシック" font-size="423px" font-weight="400"><tspan class="TextPosition" x="7277" y="8398"/><tspan class="TextPosition" x="7277" y="8398"><tspan fill="rgb(0,0,0)" stroke="none">手法</tspan></tspan></tspan></text>
 <text class="TextShape" transform="translate(956,4594) rotate(-90) translate(-956,-4594)"><tspan class="TextParagraph" font-family="IPA Pゴシック" font-size="423px" font-weight="400"><tspan class="TextPosition" x="956" y="4594"/><tspan class="TextPosition" x="956" y="4594"><tspan fill="rgb(0,0,0)" stroke="none">正答率</tspan></tspan></tspan></text>
</svg>