<?xml version="1.0" encoding="UTF-8"?>
<!DOCTYPE svg PUBLIC "-//W3C//DTD SVG 1.1//EN" "http://www.w3.org/Graphics/SVG/1.1/DTD/svg11.dtd">
<svg width="181mm" height="114mm" viewBox="0 0 18100 11400" version="1.1" baseProfile="tiny" xmlns="http://www.w3.org/2000/svg" stroke-width="28.222" stroke-linejoin="round" xml:space="preserve">
 <path fill="rgb(255,255,255)" stroke="none" d="M 9059,11401 L 0,11401 0,0 18118,0 18118,11401 9059,11401 Z"/>
 <path fill="none" stroke="rgb(179,179,179)" stroke-linejoin="round" d="M 10063,10491 L 2371,10491 2371,458 17756,458 17756,10491 10063,10491 Z"/>
 <path fill="none" stroke="rgb(179,179,179)" stroke-linejoin="round" d="M 17756,10490 L 2371,10490"/>
 <path fill="none" stroke="rgb(179,179,179)" stroke-linejoin="round" d="M 17756,9375 L 2371,9375"/>
 <path fill="none" stroke="rgb(179,179,179)" stroke-linejoin="round" d="M 17756,8260 L 2371,8260"/>
 <path fill="none" stroke="rgb(179,179,179)" stroke-linejoin="round" d="M 17756,7145 L 2371,7145"/>
 <path fill="none" stroke="rgb(179,179,179)" stroke-linejoin="round" d="M 17756,6030 L 2371,6030"/>
 <path fill="none" stroke="rgb(179,179,179)" stroke-linejoin="round" d="M 17756,4916 L 2371,4916"/>
 <path fill="none" stroke="rgb(179,179,179)" stroke-linejoin="round" d="M 17756,3801 L 2371,3801"/>
 <path fill="none" stroke="rgb(179,179,179)" stroke-linejoin="round" d="M 17756,2686 L 2371,2686"/>
 <path fill="none" stroke="rgb(179,179,179)" stroke-linejoin="round" d="M 17756,1571 L 2371,1571"/>
 <path fill="none" stroke="rgb(179,179,179)" stroke-linejoin="round" d="M 17756,456 L 2371,456"/>
 <path fill="none" stroke="rgb(179,179,179)" stroke-linejoin="round" d="M 2371,10640 L 2371,10490"/>
 <path fill="none" stroke="rgb(179,179,179)" stroke-linejoin="round" d="M 2371,10640 L 2371,10490"/>
 <path fill="none" stroke="rgb(179,179,179)" stroke-linejoin="round" d="M 4569,10640 L 4569,10490"/>
 <path fill="none" stroke="rgb(179,179,179)" stroke-linejoin="round" d="M 4569,10640 L 4569,10490"/>
 <path fill="none" stroke="rgb(179,179,179)" stroke-linejoin="round" d="M 6767,10640 L 6767,10490"/>
 <path fill="none" stroke="rgb(179,179,179)" stroke-linejoin="round" d="M 6767,10640 L 6767,10490"/>
 <path fill="none" stroke="rgb(179,179,179)" stroke-linejoin="round" d="M 8965,10640 L 8965,10490"/>
 <path fill="none" stroke="rgb(179,179,179)" stroke-linejoin="round" d="M 8965,10640 L 8965,10490"/>
 <path fill="none" stroke="rgb(179,179,179)" stroke-linejoin="round" d="M 11162,10640 L 11162,10490"/>
 <path fill="none" stroke="rgb(179,179,179)" stroke-linejoin="round" d="M 11162,10640 L 11162,10490"/>
 <path fill="none" stroke="rgb(179,179,179)" stroke-linejoin="round" d="M 13359,10640 L 13359,10490"/>
 <path fill="none" stroke="rgb(179,179,179)" stroke-linejoin="round" d="M 13359,10640 L 13359,10490"/>
 <path fill="none" stroke="rgb(179,179,179)" stroke-linejoin="round" d="M 15558,10640 L 15558,10490"/>
 <path fill="none" stroke="rgb(179,179,179)" stroke-linejoin="round" d="M 15558,10640 L 15558,10490"/>
 <path fill="none" stroke="rgb(179,179,179)" stroke-linejoin="round" d="M 17756,10640 L 17756,10490"/>
 <path fill="none" stroke="rgb(179,179,179)" stroke-linejoin="round" d="M 17756,10640 L 17756,10490"/>
 <path fill="none" stroke="rgb(179,179,179)" stroke-linejoin="round" d="M 2371,10490 L 17756,10490"/>
 <path fill="none" stroke="rgb(179,179,179)" stroke-linejoin="round" d="M 2221,10490 L 2371,10490"/>
 <path fill="none" stroke="rgb(179,179,179)" stroke-linejoin="round" d="M 2221,10490 L 2371,10490"/>
 <path fill="none" stroke="rgb(179,179,179)" stroke-linejoin="round" d="M 2221,9375 L 2371,9375"/>
 <path fill="none" stroke="rgb(179,179,179)" stroke-linejoin="round" d="M 2221,9375 L 2371,9375"/>
 <path fill="none" stroke="rgb(179,179,179)" stroke-linejoin="round" d="M 2221,8260 L 2371,8260"/>
 <path fill="none" stroke="rgb(179,179,179)" stroke-linejoin="round" d="M 2221,8260 L 2371,8260"/>
 <path fill="none" stroke="rgb(179,179,179)" stroke-linejoin="round" d="M 2221,7145 L 2371,7145"/>
 <path fill="none" stroke="rgb(179,179,179)" stroke-linejoin="round" d="M 2221,7145 L 2371,7145"/>
 <path fill="none" stroke="rgb(179,179,179)" stroke-linejoin="round" d="M 2221,6030 L 2371,6030"/>
 <path fill="none" stroke="rgb(179,179,179)" stroke-linejoin="round" d="M 2221,6030 L 2371,6030"/>
 <path fill="none" stroke="rgb(179,179,179)" stroke-linejoin="round" d="M 2221,4916 L 2371,4916"/>
 <path fill="none" stroke="rgb(179,179,179)" stroke-linejoin="round" d="M 2221,4916 L 2371,4916"/>
 <path fill="none" stroke="rgb(179,179,179)" stroke-linejoin="round" d="M 2221,3801 L 2371,3801"/>
 <path fill="none" stroke="rgb(179,179,179)" stroke-linejoin="round" d="M 2221,3801 L 2371,3801"/>
 <path fill="none" stroke="rgb(179,179,179)" stroke-linejoin="round" d="M 2221,2686 L 2371,2686"/>
 <path fill="none" stroke="rgb(179,179,179)" stroke-linejoin="round" d="M 2221,2686 L 2371,2686"/>
 <path fill="none" stroke="rgb(179,179,179)" stroke-linejoin="round" d="M 2221,1571 L 2371,1571"/>
 <path fill="none" stroke="rgb(179,179,179)" stroke-linejoin="round" d="M 2221,1571 L 2371,1571"/>
 <path fill="none" stroke="rgb(179,179,179)" stroke-linejoin="round" d="M 2221,456 L 2371,456"/>
 <path fill="none" stroke="rgb(179,179,179)" stroke-linejoin="round" d="M 2221,456 L 2371,456"/>
 <path fill="none" stroke="rgb(179,179,179)" stroke-linejoin="round" d="M 2371,10490 L 2371,456"/>
 <path fill="rgb(0,69,134)" stroke="none" d="M 15924,10490 L 16657,10490 16657,5974 15924,5974 15924,10490 Z"/>
 <path fill="rgb(0,69,134)" stroke="none" d="M 13726,10490 L 14459,10490 14459,5195 13726,5195 13726,10490 Z"/>
 <path fill="rgb(0,69,134)" stroke="none" d="M 11528,10490 L 12261,10490 12261,5251 11528,5251 11528,10490 Z"/>
 <path fill="rgb(0,69,134)" stroke="none" d="M 9330,10490 L 10063,10490 10063,3411 9330,3411 9330,10490 Z"/>
 <path fill="rgb(0,69,134)" stroke="none" d="M 7133,10490 L 7865,10490 7865,1962 7133,1962 7133,10490 Z"/>
 <path fill="rgb(0,69,134)" stroke="none" d="M 4935,10490 L 5667,10490 5667,5083 4935,5083 4935,10490 Z"/>
 <path fill="rgb(0,69,134)" stroke="none" d="M 2737,10490 L 3470,10490 3470,5083 2737,5083 2737,10490 Z"/>
 <path fill="rgb(255,66,14)" stroke="none" d="M 16657,10490 L 17389,10490 17389,6420 16657,6420 16657,10490 Z"/>
 <path fill="rgb(255,66,14)" stroke="none" d="M 14459,10490 L 15191,10490 15191,5473 14459,5473 14459,10490 Z"/>
 <path fill="rgb(255,66,14)" stroke="none" d="M 12261,10490 L 12993,10490 12993,5696 12261,5696 12261,10490 Z"/>
 <path fill="rgb(255,66,14)" stroke="none" d="M 10063,10490 L 10795,10490 10795,4749 10063,4749 10063,10490 Z"/>
 <path fill="rgb(255,66,14)" stroke="none" d="M 7866,10490 L 8598,10490 8598,5306 7866,5306 7866,10490 Z"/>
 <path fill="rgb(255,66,14)" stroke="none" d="M 5668,10490 L 6400,10490 6400,5585 5668,5585 5668,10490 Z"/>
 <path fill="rgb(255,66,14)" stroke="none" d="M 3470,10490 L 4202,10490 4202,5585 3470,5585 3470,10490 Z"/>
 <text class="TextShape"><tspan class="TextParagraph" font-family="IPA Pゴシック" font-size="423px" font-weight="400"><tspan class="TextPosition" x="3037" y="11118"/><tspan class="TextPosition" x="3037" y="11118"><tspan fill="rgb(0,0,0)" stroke="none">立地</tspan></tspan></tspan></text>
 <text class="TextShape"><tspan class="TextParagraph" font-family="IPA Pゴシック" font-size="423px" font-weight="400"><tspan class="TextPosition" x="5235" y="11118"/><tspan class="TextPosition" x="5235" y="11118"><tspan fill="rgb(0,0,0)" stroke="none">部屋</tspan></tspan></tspan></text>
 <text class="TextShape"><tspan class="TextParagraph" font-family="IPA Pゴシック" font-size="423px" font-weight="400"><tspan class="TextPosition" x="7432" y="11118"/><tspan class="TextPosition" x="7432" y="11118"><tspan fill="rgb(0,0,0)" stroke="none">食事</tspan></tspan></tspan></text>
 <text class="TextShape"><tspan class="TextParagraph" font-family="IPA Pゴシック" font-size="423px" font-weight="400"><tspan class="TextPosition" x="9631" y="11118"/><tspan class="TextPosition" x="9631" y="11118"><tspan fill="rgb(0,0,0)" stroke="none">風呂</tspan></tspan></tspan></text>
 <text class="TextShape"><tspan class="TextParagraph" font-family="IPA Pゴシック" font-size="423px" font-weight="400"><tspan class="TextPosition" x="11477" y="11118"/><tspan class="TextPosition" x="11477" y="11118"><tspan fill="rgb(0,0,0)" stroke="none">サービス</tspan></tspan></tspan></text>
 <text class="TextShape"><tspan class="TextParagraph" font-family="IPA Pゴシック" font-size="423px" font-weight="400"><tspan class="TextPosition" x="14027" y="11118"/><tspan class="TextPosition" x="14027" y="11118"><tspan fill="rgb(0,0,0)" stroke="none">設備</tspan></tspan></tspan></text>
 <text class="TextShape"><tspan class="TextParagraph" font-family="IPA Pゴシック" font-size="423px" font-weight="400"><tspan class="TextPosition" x="16225" y="11118"/><tspan class="TextPosition" x="16225" y="11118"><tspan fill="rgb(0,0,0)" stroke="none">総合</tspan></tspan></tspan></text>
 <text class="TextShape"><tspan class="TextParagraph" font-family="Liberation Sans" font-size="423px" font-weight="400"><tspan class="TextPosition" x="1878" y="10640"/><tspan class="TextPosition" x="1878" y="10640"><tspan fill="rgb(0,0,0)" stroke="none">0</tspan></tspan></tspan></text>
 <text class="TextShape"><tspan class="TextParagraph" font-family="Liberation Sans" font-size="423px" font-weight="400"><tspan class="TextPosition" x="1527" y="9525"/><tspan class="TextPosition" x="1527" y="9525"><tspan fill="rgb(0,0,0)" stroke="none">0.2</tspan></tspan></tspan></text>
 <text class="TextShape"><tspan class="TextParagraph" font-family="Liberation Sans" font-size="423px" font-weight="400"><tspan class="TextPosition" x="1527" y="8410"/><tspan class="TextPosition" x="1527" y="8410"><tspan fill="rgb(0,0,0)" stroke="none">0.4</tspan></tspan></tspan></text>
 <text class="TextShape"><tspan class="TextParagraph" font-family="Liberation Sans" font-size="423px" font-weight="400"><tspan class="TextPosition" x="1527" y="7295"/><tspan class="TextPosition" x="1527" y="7295"><tspan fill="rgb(0,0,0)" stroke="none">0.6</tspan></tspan></tspan></text>
 <text class="TextShape"><tspan class="TextParagraph" font-family="Liberation Sans" font-size="423px" font-weight="400"><tspan class="TextPosition" x="1527" y="6180"/><tspan class="TextPosition" x="1527" y="6180"><tspan fill="rgb(0,0,0)" stroke="none">0.8</tspan></tspan></tspan></text>
 <text class="TextShape"><tspan class="TextParagraph" font-family="Liberation Sans" font-size="423px" font-weight="400"><tspan class="TextPosition" x="1878" y="5065"/><tspan class="TextPosition" x="1878" y="5065"><tspan fill="rgb(0,0,0)" stroke="none">1</tspan></tspan></tspan></text>
 <text class="TextShape"><tspan class="TextParagraph" font-family="Liberation Sans" font-size="423px" font-weight="400"><tspan class="TextPosition" x="1527" y="3950"/><tspan class="TextPosition" x="1527" y="3950"><tspan fill="rgb(0,0,0)" stroke="none">1.2</tspan></tspan></tspan></text>
 <text class="TextShape"><tspan class="TextParagraph" font-family="Liberation Sans" font-size="423px" font-weight="400"><tspan class="TextPosition" x="1527" y="2835"/><tspan class="TextPosition" x="1527" y="2835"><tspan fill="rgb(0,0,0)" stroke="none">1.4</tspan></tspan></tspan></text>
 <text class="TextShape"><tspan class="TextParagraph" font-family="Liberation Sans" font-size="423px" font-weight="400"><tspan class="TextPosition" x="1527" y="1720"/><tspan class="TextPosition" x="1527" y="1720"><tspan fill="rgb(0,0,0)" stroke="none">1.6</tspan></tspan></tspan></text>
 <text class="TextShape"><tspan class="TextParagraph" font-family="Liberation Sans" font-size="423px" font-weight="400"><tspan class="TextPosition" x="1527" y="605"/><tspan class="TextPosition" x="1527" y="605"><tspan fill="rgb(0,0,0)" stroke="none">1.8</tspan></tspan></tspan></text>
 <path fill="rgb(0,69,134)" stroke="none" d="M 15004,887 L 14877,887 14877,633 15131,633 15131,887 15004,887 Z"/>
 <path fill="rgb(255,66,14)" stroke="none" d="M 15004,1447 L 14877,1447 14877,1193 15131,1193 15131,1447 15004,1447 Z"/>
 <text class="TextShape"><tspan class="TextParagraph" font-family="IPA Pゴシック" font-size="423px" font-weight="400"><tspan class="TextPosition" x="15231" y="908"/><tspan class="TextPosition" x="15231" y="908"><tspan fill="rgb(0,0,0)" stroke="none">従来手法</tspan></tspan><tspan class="TextPosition" x="17046" y="908"><tspan font-family="Liberation Sans" fill="rgb(0,0,0)" stroke="none">[1]</tspan></tspan></tspan></text>
 <text class="TextShape"><tspan class="TextParagraph" font-family="IPA Pゴシック" font-size="423px" font-weight="400"><tspan class="TextPosition" x="15231" y="1468"/><tspan class="TextPosition" x="15231" y="1468"><tspan fill="rgb(0,0,0)" stroke="none">提案手法</tspan></tspan></tspan></text>
 <text class="TextShape" transform="translate(956,6322) rotate(-90) translate(-956,-6322)"><tspan class="TextParagraph" font-family="Liberation Sans" font-size="423px" font-weight="400"><tspan class="TextPosition" x="956" y="6322"/><tspan class="TextPosition" x="956" y="6322"><tspan fill="rgb(0,0,0)" stroke="none">RMSE</tspan></tspan></tspan></text>
</svg>